<svg xmlns="http://www.w3.org/2000/svg" height="242.22406005859375" width="1291.2708740234375">
        <script type="application/ecmascript"> <![CDATA[
            var visiblePage = 'p1';
            function goToPage(page) {
                document.getElementById(visiblePage).setAttribute('style', 'display: none');
                document.getElementById(page).setAttribute('style', 'display: inline');
                visiblePage = page;
            }
        ]]> </script>
    <g id="p1" style="display:inline"><filter id="blurMe"><feGaussianBlur in="SourceGraphic" stdDeviation="10" /></filter><!-- pen: Fineliner --> 
<polyline style="fill:none;stroke:[0, 0, 0];stroke-width:2.0;opacity:1" stroke-linecap="round" points=""/>
<polyline style="fill:none; stroke:rgb(0, 0, 0) ;stroke-width:5.573;opacity:1" stroke-linecap="round" points="191.565,95.464 191.658,95.635 191.504,95.450 190.989,95.700 188.414,95.205 183.041,94.786 173.721,92.845 169.575,93.538 168.234,94.753 166.883,97.807 166.602,99.821 166.769,111.432 165.834,127.960 166.260,132.233 166.641,132.690 167.014,131.734 176.220,127.408 182.354,125.504 189.054,125.095 192.965,125.708 195.182,126.387 202.992,131.460 206.994,135.580 208.722,137.948 209.827,140.765 210.120,143.680 209.860,146.881 209.040,150.237 206.067,157.844 202.153,164.191 199.526,167.160 196.771,169.727 193.615,171.781 189.891,173.619 187.165,174.322 185.567,174.395 182.453,173.861 180.874,173.290 174.503,169.986 171.729,167.948 170.731,166.447 " />
<!-- pen: Fineliner --> 
<polyline style="fill:none;stroke:[0, 0, 0];stroke-width:2.0;opacity:1" stroke-linecap="round" points=""/>
<polyline style="fill:none; stroke:rgb(0, 0, 0) ;stroke-width:5.573;opacity:1" stroke-linecap="round" points="252.406,103.801 251.775,100.053 251.353,99.833 251.456,105.981 251.923,120.403 253.260,140.954 253.791,162.081 " />
<!-- pen: Fineliner --> 
<polyline style="fill:none;stroke:[0, 0, 0];stroke-width:2.0;opacity:1" stroke-linecap="round" points=""/>
<polyline style="fill:none; stroke:rgb(0, 0, 0) ;stroke-width:5.573;opacity:1" stroke-linecap="round" points="235.291,137.659 234.144,136.838 234.391,136.314 235.446,135.492 241.056,134.473 246.469,133.891 251.308,134.107 254.365,135.005 257.887,135.342 263.847,134.791 " />
<!-- pen: Fineliner --> 
<polyline style="fill:none;stroke:[0, 0, 0];stroke-width:2.0;opacity:1" stroke-linecap="round" points=""/>
<polyline style="fill:none; stroke:rgb(0, 0, 0) ;stroke-width:5.573;opacity:1" stroke-linecap="round" points="296.046,104.321 294.709,101.807 294.796,101.196 295.382,101.889 295.992,104.727 295.899,109.252 294.703,119.342 294.724,122.152 295.293,125.616 297.551,128.751 300.018,130.138 301.713,130.588 304.540,131.036 309.750,131.142 321.790,130.068 325.278,129.297 325.808,129.015 325.589,128.554 " />
<!-- pen: Fineliner --> 
<polyline style="fill:none;stroke:[0, 0, 0];stroke-width:2.0;opacity:1" stroke-linecap="round" points=""/>
<polyline style="fill:none; stroke:rgb(0, 0, 0) ;stroke-width:5.573;opacity:1" stroke-linecap="round" points="319.522,109.890 317.271,109.658 316.177,110.042 315.626,110.603 315.520,112.254 316.243,126.941 315.461,150.329 315.916,152.781 317.012,155.352 317.646,156.034 " />
<!-- pen: Fineliner --> 
<polyline style="fill:none;stroke:[0, 0, 0];stroke-width:2.0;opacity:1" stroke-linecap="round" points=""/>
<polyline style="fill:none; stroke:rgb(0, 0, 0) ;stroke-width:5.573;opacity:1" stroke-linecap="round" points="351.056,154.293 351.111,155.471 351.359,154.862 351.127,149.842 349.467,143.910 " />
<!-- pen: Fineliner --> 
<polyline style="fill:none;stroke:[0, 0, 0];stroke-width:2.0;opacity:1" stroke-linecap="round" points=""/>
<polyline style="fill:none; stroke:rgb(0, 0, 0) ;stroke-width:5.573;opacity:1" stroke-linecap="round" points="348.668,114.735 345.973,113.265 345.948,113.026 346.514,113.251 347.109,113.956 349.341,117.787 350.759,119.621 " />
<!-- pen: Fineliner --> 
<polyline style="fill:none;stroke:[0, 0, 0];stroke-width:2.0;opacity:1" stroke-linecap="round" points=""/>
<polyline style="fill:none; stroke:rgb(0, 0, 0) ;stroke-width:5.573;opacity:1" stroke-linecap="round" points="417.466,115.617 415.955,115.281 417.619,115.254 423.600,116.095 431.969,116.369 441.452,116.004 450.068,115.000 452.305,115.067 453.977,115.313 455.011,115.892 454.943,116.989 453.763,119.401 " />
<!-- pen: Fineliner --> 
<polyline style="fill:none;stroke:[0, 0, 0];stroke-width:2.0;opacity:1" stroke-linecap="round" points=""/>
<polyline style="fill:none; stroke:rgb(0, 0, 0) ;stroke-width:5.573;opacity:1" stroke-linecap="round" points="418.434,147.478 441.720,145.025 447.711,144.690 450.979,144.780 452.448,145.149 453.112,145.508 454.853,147.474 " />
<!-- pen: Fineliner --> 
<polyline style="fill:none;stroke:[0, 0, 0];stroke-width:2.0;opacity:1" stroke-linecap="round" points=""/>
<polyline style="fill:none; stroke:rgb(0, 0, 0) ;stroke-width:5.573;opacity:1" stroke-linecap="round" points="560.479,101.658 559.013,101.102 555.820,101.360 551.612,102.720 546.669,105.032 541.782,108.071 538.733,110.704 537.092,112.961 536.472,114.853 536.426,116.364 537.266,119.014 538.952,123.164 541.220,127.148 544.705,136.085 546.729,140.340 551.379,148.027 551.786,150.221 550.890,152.993 548.498,155.596 542.515,159.486 536.440,162.397 532.811,163.020 530.016,162.519 526.947,160.292 525.028,157.342 523.665,154.376 523.873,153.355 525.532,153.206 " />
<!-- pen: Fineliner --> 
<polyline style="fill:none;stroke:[0, 0, 0];stroke-width:2.0;opacity:1" stroke-linecap="round" points=""/>
<polyline style="fill:none; stroke:rgb(0, 0, 0) ;stroke-width:5.573;opacity:1" stroke-linecap="round" points="583.437,155.279 583.665,155.178 582.899,153.320 580.376,149.670 " />
<!-- pen: Fineliner --> 
<polyline style="fill:none;stroke:[0, 0, 0];stroke-width:2.0;opacity:1" stroke-linecap="round" points=""/>
<polyline style="fill:none; stroke:rgb(0, 0, 0) ;stroke-width:5.573;opacity:1" stroke-linecap="round" points="579.329,115.289 579.171,113.718 579.842,113.953 580.561,114.725 " />
<!-- pen: Fineliner --> 
<polyline style="fill:none;stroke:[0, 0, 0];stroke-width:2.0;opacity:1" stroke-linecap="round" points=""/>
<polyline style="fill:none; stroke:rgb(0, 0, 0) ;stroke-width:5.573;opacity:1" stroke-linecap="round" points="616.647,159.713 614.239,158.430 612.149,154.925 611.505,153.028 610.842,148.014 611.585,142.584 613.643,135.041 615.552,129.865 617.317,126.381 619.648,122.420 621.038,120.602 623.608,118.259 624.815,117.759 627.189,117.839 629.716,119.365 635.706,127.892 639.854,134.897 641.295,137.958 642.632,142.500 643.029,146.546 642.677,152.004 642.964,152.967 643.405,153.398 " />
<!-- pen: Fineliner --> 
<polyline style="fill:none;stroke:[0, 0, 0];stroke-width:2.0;opacity:1" stroke-linecap="round" points=""/>
<polyline style="fill:none; stroke:rgb(0, 0, 0) ;stroke-width:5.573;opacity:1" stroke-linecap="round" points="694.082,83.599 692.827,81.643 691.754,80.770 690.779,80.953 688.625,82.343 686.450,84.486 684.877,86.669 680.597,95.127 678.385,101.332 676.291,110.271 675.457,116.889 675.415,123.269 676.361,131.835 678.052,139.925 680.348,147.859 682.297,153.210 684.936,159.276 687.784,164.220 690.845,167.935 696.860,172.780 698.532,173.537 699.830,173.235 " />
<!-- pen: Fineliner --> 
<polyline style="fill:none;stroke:[0, 0, 0];stroke-width:2.0;opacity:1" stroke-linecap="round" points=""/>
<polyline style="fill:none; stroke:rgb(0, 0, 0) ;stroke-width:5.573;opacity:1" stroke-linecap="round" points="725.663,83.301 725.639,82.069 725.611,83.909 724.207,91.534 724.059,94.881 725.061,98.314 727.169,100.161 730.334,101.229 733.874,101.877 751.963,103.573 754.246,103.076 753.197,99.063 " />
<!-- pen: Fineliner --> 
<polyline style="fill:none;stroke:[0, 0, 0];stroke-width:2.0;opacity:1" stroke-linecap="round" points=""/>
<polyline style="fill:none; stroke:rgb(0, 0, 0) ;stroke-width:5.573;opacity:1" stroke-linecap="round" points="744.173,84.601 742.633,84.510 743.161,84.816 743.533,86.063 744.924,97.179 749.089,123.016 749.316,121.235 751.310,118.239 " />
<!-- pen: Fineliner --> 
<polyline style="fill:none;stroke:[0, 0, 0];stroke-width:2.0;opacity:1" stroke-linecap="round" points=""/>
<polyline style="fill:none; stroke:rgb(0, 0, 0) ;stroke-width:5.573;opacity:1" stroke-linecap="round" points="780.850,118.081 781.133,118.095 781.139,115.431 780.837,112.895 778.127,106.573 " />
<!-- pen: Fineliner --> 
<polyline style="fill:none;stroke:[0, 0, 0];stroke-width:2.0;opacity:1" stroke-linecap="round" points=""/>
<polyline style="fill:none; stroke:rgb(0, 0, 0) ;stroke-width:5.573;opacity:1" stroke-linecap="round" points="776.517,80.230 774.864,79.422 775.888,79.816 777.908,82.647 " />
<!-- pen: Fineliner --> 
<polyline style="fill:none;stroke:[0, 0, 0];stroke-width:2.0;opacity:1" stroke-linecap="round" points=""/>
<polyline style="fill:none; stroke:rgb(0, 0, 0) ;stroke-width:5.573;opacity:1" stroke-linecap="round" points="729.371,138.609 728.136,138.873 737.030,139.578 746.105,139.375 779.936,135.950 787.434,135.391 793.155,135.346 796.371,135.808 798.775,136.527 800.164,137.212 800.593,138.279 800.120,138.819 799.376,138.821 795.407,141.907 791.090,143.935 " />
<!-- pen: Fineliner --> 
<polyline style="fill:none;stroke:[0, 0, 0];stroke-width:2.0;opacity:1" stroke-linecap="round" points=""/>
<polyline style="fill:none; stroke:rgb(0, 0, 0) ;stroke-width:5.573;opacity:1" stroke-linecap="round" points="729.925,170.594 728.558,170.183 730.271,172.928 735.187,182.601 739.636,189.487 744.097,195.316 746.357,197.569 747.437,199.311 747.037,198.226 749.405,189.917 750.060,185.610 750.610,161.350 750.452,158.953 749.956,157.372 750.157,157.627 756.505,158.220 775.255,159.110 781.222,159.917 790.573,162.002 796.072,162.388 789.927,161.317 " />
<!-- pen: Fineliner --> 
<polyline style="fill:none;stroke:[0, 0, 0];stroke-width:2.0;opacity:1" stroke-linecap="round" points=""/>
<polyline style="fill:none; stroke:rgb(0, 0, 0) ;stroke-width:5.573;opacity:1" stroke-linecap="round" points="769.223,178.353 768.670,178.779 768.205,178.698 770.612,174.418 771.134,173.997 773.325,173.264 776.324,172.798 779.766,172.857 783.693,173.374 786.502,174.480 788.219,176.069 791.226,180.698 792.292,182.914 793.949,189.635 793.821,193.454 792.209,197.969 790.548,199.682 787.740,201.273 780.976,203.331 776.401,204.123 775.023,203.938 773.485,203.074 772.567,200.752 772.576,197.419 773.392,195.927 773.901,197.133 776.805,200.019 783.549,207.902 786.642,209.801 788.708,210.613 794.379,212.063 " />
<!-- pen: Fineliner --> 
<polyline style="fill:none;stroke:[0, 0, 0];stroke-width:2.0;opacity:1" stroke-linecap="round" points=""/>
<polyline style="fill:none; stroke:rgb(0, 0, 0) ;stroke-width:5.573;opacity:1" stroke-linecap="round" points="813.376,72.822 811.893,72.542 810.588,72.659 811.772,72.737 825.845,88.266 830.559,94.844 838.195,108.129 839.608,112.137 840.234,114.911 842.357,129.103 843.449,144.499 843.533,152.818 842.967,158.337 841.856,164.862 837.296,185.265 832.191,202.960 827.854,215.170 826.573,220.056 826.290,221.823 826.464,222.776 826.905,221.053 827.876,219.865 " />
<!-- pen: Fineliner --> 
<polyline style="fill:none;stroke:[0, 0, 0];stroke-width:2.0;opacity:1" stroke-linecap="round" points=""/>
<polyline style="fill:none; stroke:rgb(0, 0, 0) ;stroke-width:5.573;opacity:1" stroke-linecap="round" points="842.575,42.864 841.936,42.576 842.117,42.329 842.977,42.405 846.784,41.387 848.630,41.213 853.059,41.272 857.806,42.022 860.343,42.726 863.889,44.568 865.486,45.891 867.548,48.257 869.756,52.529 870.563,58.614 870.418,65.255 869.754,68.651 868.913,70.729 867.716,72.625 866.099,74.175 863.132,76.422 860.242,77.767 857.538,78.322 855.958,77.786 855.501,77.197 854.894,74.794 854.816,72.493 855.105,70.910 857.117,66.772 857.267,68.074 861.283,73.005 867.396,78.746 871.967,82.082 873.369,83.819 " />
<!-- pen: Fineliner --> 
<polyline style="fill:none;stroke:[0, 0, 0];stroke-width:2.0;opacity:1" stroke-linecap="round" points=""/>
<polyline style="fill:none; stroke:rgb(0, 0, 0) ;stroke-width:5.573;opacity:1" stroke-linecap="round" points="897.230,136.885 896.883,136.885 897.127,137.042 897.160,136.633 897.605,136.579 904.846,136.061 923.272,135.113 934.460,135.517 937.305,136.168 937.302,136.516 936.782,136.598 935.305,136.220 " />
<!-- pen: Fineliner --> 
<polyline style="fill:none;stroke:[0, 0, 0];stroke-width:2.0;opacity:1" stroke-linecap="round" points=""/>
<polyline style="fill:none; stroke:rgb(0, 0, 0) ;stroke-width:5.573;opacity:1" stroke-linecap="round" points="1027.491,94.596 1029.731,93.762 1029.523,93.502 1022.094,94.414 1006.881,95.338 1002.189,95.303 998.211,94.590 993.285,92.862 991.248,92.359 989.955,92.483 989.779,92.354 990.015,92.197 983.167,92.662 978.159,94.045 968.597,94.874 969.579,95.237 975.581,101.157 983.954,110.018 987.001,113.614 991.964,117.795 993.198,119.742 996.436,123.054 998.663,124.663 1004.779,130.069 1009.822,132.772 1009.429,132.672 1009.579,132.886 1007.197,134.614 994.678,146.950 988.516,152.260 984.372,155.437 978.876,158.963 964.235,170.943 956.498,176.860 955.945,177.193 955.626,177.075 956.164,176.833 956.141,177.139 956.505,176.976 966.059,177.785 991.846,177.595 1001.468,177.180 1012.782,175.839 1019.349,174.751 1020.105,174.881 1018.814,175.109 1016.683,176.061 " />
<!-- pen: Fineliner --> 
<polyline style="fill:none;stroke:[0, 0, 0];stroke-width:2.0;opacity:1" stroke-linecap="round" points=""/>
<polyline style="fill:none; stroke:rgb(0, 0, 0) ;stroke-width:5.573;opacity:1" stroke-linecap="round" points="972.755,221.873 972.720,222.349 972.251,222.083 971.593,217.563 971.766,214.569 970.847,205.676 969.822,200.693 969.942,197.451 970.709,196.623 970.758,196.820 974.956,196.425 983.367,198.616 986.112,198.862 986.851,198.574 986.552,198.809 986.018,198.180 " />
<!-- pen: Fineliner --> 
<polyline style="fill:none;stroke:[0, 0, 0];stroke-width:2.0;opacity:1" stroke-linecap="round" points=""/>
<polyline style="fill:none; stroke:rgb(0, 0, 0) ;stroke-width:5.573;opacity:1" stroke-linecap="round" points="995.274,73.368 993.726,73.354 992.639,72.628 990.624,68.611 990.486,64.337 991.003,58.474 991.867,54.482 993.537,50.670 994.670,49.308 996.285,48.018 997.420,47.242 998.413,47.064 999.866,47.860 1001.248,49.412 1002.922,54.744 1004.370,65.925 1004.302,69.208 1003.901,71.671 1004.008,74.773 " />
<!-- pen: Fineliner --> 
<polyline style="fill:none;stroke:[0, 0, 0];stroke-width:2.0;opacity:1" stroke-linecap="round" points=""/>
<polyline style="fill:none; stroke:rgb(0, 0, 0) ;stroke-width:5.573;opacity:1" stroke-linecap="round" points="1052.465,116.192 1052.622,116.388 1052.100,116.368 1050.108,114.963 1048.499,114.625 1045.795,114.640 1043.721,115.415 1043.123,115.962 1042.095,117.951 1041.181,120.532 1040.586,123.369 1040.561,127.059 1041.647,132.058 1044.720,139.687 1046.389,142.165 1049.284,145.495 1053.661,148.216 " />
<!-- pen: Fineliner --> 
<polyline style="fill:none;stroke:[0, 0, 0];stroke-width:2.0;opacity:1" stroke-linecap="round" points=""/>
<polyline style="fill:none; stroke:rgb(0, 0, 0) ;stroke-width:5.573;opacity:1" stroke-linecap="round" points="1070.068,149.120 1070.341,149.131 1069.993,142.609 1068.554,133.151 1069.004,127.880 1069.359,128.361 1070.051,128.214 1075.123,129.011 1080.219,131.020 1080.567,131.695 1080.391,134.219 " />
<!-- pen: Fineliner --> 
<polyline style="fill:none;stroke:[0, 0, 0];stroke-width:2.0;opacity:1" stroke-linecap="round" points=""/>
<polyline style="fill:none; stroke:rgb(0, 0, 0) ;stroke-width:5.573;opacity:1" stroke-linecap="round" points="1117.565,123.993 1117.576,123.580 1117.795,123.684 1117.807,131.942 1117.529,137.306 1116.308,149.233 1114.981,156.663 1114.999,157.424 1115.269,156.925 1113.893,155.788 1112.524,155.125 " />
<!-- pen: Fineliner --> 
<polyline style="fill:none;stroke:[0, 0, 0];stroke-width:2.0;opacity:1" stroke-linecap="round" points=""/>
<polyline style="fill:none; stroke:rgb(0, 0, 0) ;stroke-width:5.573;opacity:1" stroke-linecap="round" points="1106.004,140.662 1115.674,140.706 1122.136,141.236 1126.932,140.935 1126.580,140.739 " />
<!-- pen: Fineliner --> 
<polyline style="fill:none;stroke:[0, 0, 0];stroke-width:2.0;opacity:1" stroke-linecap="round" points=""/>
<polyline style="fill:none; stroke:rgb(0, 0, 0) ;stroke-width:5.573;opacity:1" stroke-linecap="round" points="1155.621,122.812 1155.645,122.014 1156.031,121.597 1155.976,122.044 1157.090,124.745 1158.253,130.216 1158.522,135.848 1157.771,144.171 1158.321,147.509 1158.209,147.223 1158.051,147.444 1157.933,146.884 " />
<!-- pen: Fineliner --> 
<polyline style="fill:none;stroke:[0, 0, 0];stroke-width:2.0;opacity:1" stroke-linecap="round" points=""/>
<polyline style="fill:none; stroke:rgb(0, 0, 0) ;stroke-width:5.573;opacity:1" stroke-linecap="round" points="1172.543,107.734 1172.256,107.468 1172.360,107.091 1175.188,108.366 1181.950,112.803 1183.785,114.587 1186.688,120.777 1187.393,123.149 1187.593,125.531 1187.518,128.125 1186.929,131.816 1183.371,141.084 1181.322,144.469 1177.938,148.691 1174.048,152.763 1173.693,153.552 1173.881,153.625 1173.716,153.018 1172.995,153.605 " />
<rect x="0" y="0" width="1291.2708740234375" height="242.22406005859375" fill-opacity="0"/></g></svg>